<?xml version="1.0" standalone="no"?>
<!DOCTYPE svg PUBLIC "-//W3C//DTD SVG 20010904//EN"
 "http://www.w3.org/TR/2001/REC-SVG-20010904/DTD/svg10.dtd">
<svg version="1.0" xmlns="http://www.w3.org/2000/svg"
 width="512.000000pt" height="512.000000pt" viewBox="0 0 512.000000 512.000000"
 preserveAspectRatio="xMidYMid meet">
<metadata>
Created by potrace 1.14, written by Peter Selinger 2001-2017
</metadata>
<g transform="translate(0.000000,512.000000) scale(0.100000,-0.100000)"
fill="#000000" stroke="none">
<path d="M2468 4785 c-160 -43 -272 -185 -278 -351 -4 -111 -3 -115 28 -108
15 3 39 7 53 9 14 3 52 8 84 13 74 12 335 12 407 1 29 -5 71 -11 93 -14 22 -3
48 -8 57 -11 21 -6 25 25 17 116 -9 91 -24 141 -62 196 -83 124 -254 188 -399
149z"/>
<path d="M2355 4190 c-22 -5 -53 -10 -70 -13 -137 -22 -308 -94 -456 -192
-276 -184 -473 -490 -534 -830 -11 -62 -16 -221 -19 -565 -2 -336 -3 -360 -25
-445 -70 -266 -221 -529 -440 -760 -81 -87 -102 -133 -103 -235 0 -70 48 -167
105 -213 89 -72 -39 -67 1767 -65 l1625 3 45 24 c49 25 103 78 127 124 28 55
41 147 28 202 -16 68 -22 79 -110 176 -133 146 -239 296 -309 435 -33 67 -93
211 -101 244 -45 186 -44 171 -45 555 0 204 -3 397 -6 430 -26 330 -199 653
-459 861 -120 96 -271 176 -415 219 -79 24 -108 30 -210 44 -71 11 -343 11
-395 1z"/>
<path d="M1991 683 c31 -82 120 -189 210 -250 241 -164 590 -138 791 61 35 34
68 69 75 78 17 23 73 124 73 131 0 4 -261 7 -580 7 l-580 0 11 -27z"/>
</g>
</svg>
